Coordinates
version=1
nRows=26
nColumns=24
inDegrees=yes

Units are S.I. units (second, meters, Newtons, ...)
Angles are in degrees.

endheader
time	pelvis_tilt	pelvis_list	pelvis_rotation	pelvis_tx	pelvis_ty	pelvis_tz	hip_flexion_r	hip_adduction_r	hip_rotation_r	knee_angle_r	ankle_angle_r	subtalar_angle_r	mtp_angle_r	hip_flexion_l	hip_adduction_l	hip_rotation_l	knee_angle_l	ankle_angle_l	subtalar_angle_l	mtp_angle_l	lumbar_extension	lumbar_bending	lumbar_rotation
      0.72550000	     -1.05952010	     -5.14893867	      6.70450069	     -0.47437727	      1.03110777	      0.33732226	     11.51324459	      9.41950450	     -4.08011479	    -14.50664050	      2.52801787	    -10.86130745	      5.28594537	     18.04778006	     -7.28592787	     -2.50182239	    -66.36181454	     -3.72640049	     -4.50193914	      0.86256962	     -4.14668329	      3.56450370	     -1.32343364
      0.72966667	     -1.02985673	     -5.05714549	      6.72547829	     -0.46912953	      1.03192209	      0.33745265	     10.99334323	      9.37840523	     -4.06319309	    -14.20330807	      2.66083263	    -10.75626669	      5.27789396	     18.53546594	     -7.18076698	     -2.51859836	    -66.02031269	     -2.99072458	     -4.63747382	      0.70217059	     -4.19595902	      3.44649687	     -1.22876037
      0.73383333	     -0.98804804	     -4.96452660	      6.73851341	     -0.46390683	      1.03274079	      0.33759018	     10.46274571	      9.33946951	     -4.04021129	    -13.90086553	      2.77780408	    -10.66397106	      5.26756913	     18.99227990	     -7.07207565	     -2.54150029	    -65.60912606	     -2.32163672	     -4.84063692	      0.55240112	     -4.29009860	      3.32277358	     -1.14817200
      0.73800000	     -0.99840652	     -4.85427345	      6.73776003	     -0.45869783	      1.03346212	      0.33771646	     10.00347985	      9.26992314	     -4.03841649	    -13.64062777	      2.95116817	    -10.51060378	      5.08505013	     19.48573318	     -6.92880793	     -2.57257638	    -65.13472678	     -1.68930947	     -5.08202789	     -1.26229602	     -4.30859303	      3.17314251	     -0.93217516
      0.74216667	     -0.97013728	     -4.75844735	      6.73507478	     -0.45347750	      1.03420465	      0.33786459	      9.48737152	      9.22837001	     -4.00256898	    -13.33542568	      3.02438953	    -10.45460792	      5.08354815	     19.91869980	     -6.81503411	     -2.61922886	    -64.59532604	     -1.11331584	     -5.33993340	     -1.26645493	     -4.38309758	      3.04739007	     -0.95430504
      0.74633333	     -0.90340282	     -4.64123876	      6.72992033	     -0.44827737	      1.03499971	      0.33800114	      8.92379265	      9.16940216	     -3.94365574	    -13.02600810	      3.13247207	    -10.37298193	      5.07926803	     20.28264819	     -6.67477063	     -2.66461394	    -63.97660061	     -0.60039341	     -5.57877449	     -1.28477368	     -4.53436284	      2.90394530	     -0.90812866
      0.75050000	     -0.82188947	     -4.52353551	      6.71507668	     -0.44305711	      1.03579486	      0.33815752	      8.34021506	      9.11280219	     -3.88890912	    -12.70919671	      3.25270551	    -10.27575296	      5.06932087	     20.60480583	     -6.53953454	     -2.72300195	    -63.28820729	     -0.15514668	     -5.84349450	     -1.31885189	     -4.67301585	      2.75171410	     -0.81373208
      0.75466667	     -0.77611449	     -4.40665819	      6.68744940	     -0.43786314	      1.03648383	      0.33831220	      7.80938344	      9.05085657	     -3.83596284	    -12.41989536	      3.37411331	    -10.18182671	      5.05482524	     20.95035845	     -6.39838949	     -2.79016086	    -62.54886089	      0.26858836	     -6.12345702	     -1.35943560	     -4.77945836	      2.60292853	     -0.71263139
      0.75883333	     -0.70677905	     -4.27754822	      6.65038933	     -0.43266533	      1.03719848	      0.33847302	      7.25043671	      8.97869107	     -3.77177850	    -12.12942123	      3.50024091	    -10.08083329	      5.03517457	     21.23981204	     -6.24633845	     -2.86640286	    -61.73516723	      0.64965331	     -6.41470580	     -1.40690165	     -4.91465916	      2.43219437	     -0.60517914
      0.76300000	     -0.66817437	     -4.15665441	      6.59985378	     -0.42749585	      1.03780914	      0.33863427	      6.73982687	      8.91091997	     -3.70000311	    -11.86578028	      3.61666848	    -10.00538430	      5.01795405	     21.54713877	     -6.09693897	     -2.94524219	    -60.87321700	      1.02967803	     -6.69993755	     -1.44190775	     -5.02248639	      2.28643447	     -0.51651316
      0.76716667	     -0.58491478	     -4.02266975	      6.54520137	     -0.42231899	      1.03847996	      0.33880297	      6.17022286	      8.83560474	     -3.61291791	    -11.58284908	      3.74612361	     -9.91362997	      4.99367449	     21.77536133	     -5.94023915	     -3.03413027	    -59.93491713	      1.34204113	     -6.99217228	     -1.48782400	     -5.17981504	      2.11789014	     -0.39772715
      0.77133333	     -0.50871250	     -3.89967548	      6.48749536	     -0.41714521	      1.03908142	      0.33897457	      5.61086534	      8.77078524	     -3.51938716	    -11.30083744	      3.88206882	     -9.82299294	      4.95706163	     21.99551105	     -5.79372916	     -3.12010120	    -58.94691484	      1.62300691	     -7.28105074	     -1.55009050	     -5.32557217	      1.95086234	     -0.26027298
      0.77550000	     -0.46993331	     -3.77168696	      6.40350531	     -0.41200251	      1.03959139	      0.33915748	      5.11263358	      8.69410569	     -3.41029513	    -11.06285138	      4.00956188	     -9.75983706	      4.92629383	     22.23048289	     -5.63749340	     -3.22036552	    -57.90111780	      1.91775919	     -7.55062421	     -1.59770255	     -5.43854252	      1.79167782	     -0.15411628
      0.77966667	     -0.39775519	     -3.64704583	      6.32605206	     -0.40685137	      1.04011017	      0.33934394	      4.56689020	      8.62594490	     -3.29508239	    -10.79682426	      4.15076154	     -9.68029645	      4.87798947	     22.40966631	     -5.48908578	     -3.31812401	    -56.79643012	      2.14476508	     -7.83327499	     -1.66884513	     -5.58477633	      1.62637750	     -0.00095400
      0.78383333	     -0.35713072	     -3.52625725	      6.23138995	     -0.40171968	      1.04054264	      0.33953040	      4.06955920	      8.55550751	     -3.16664740	    -10.55781187	      4.28826456	     -9.62006816	      4.82647011	     22.59992755	     -5.34063166	     -3.42227007	    -55.63551034	      2.37254052	     -8.09969286	     -1.73975940	     -5.69525668	      1.46613007	      0.13303443
      0.78800000	     -0.31533158	     -3.40533910	      6.11924277	     -0.39660728	      1.04092785	      0.33973361	      3.58511710	      8.48335220	     -3.02583357	    -10.34799418	      4.42288753	     -9.57218512	      4.78486984	     22.76443621	     -5.19477978	     -3.53530400	    -54.41931500	      2.60512625	     -8.34017571	     -1.79549062	     -5.82075650	      1.31027206	      0.24780842
      0.79216667	     -0.26244113	     -3.28859717	      6.00660963	     -0.39149167	      1.04130307	      0.33992842	      3.08273004	      8.41585081	     -2.87619930	    -10.12195571	      4.55855079	     -9.52352059	      4.74056971	     22.89405910	     -5.05366542	     -3.64937667	    -53.14304555	      2.79210405	     -8.58188537	     -1.85407779	     -5.94925639	      1.15506024	      0.38350593
      0.79633333	     -0.19724995	     -3.18682027	      5.89872394	     -0.38637309	      1.04163920	      0.34010639	      2.56335261	      8.36373049	     -2.72699310	     -9.88174046	      4.70086224	     -9.47587663	      4.67059130	     22.99363253	     -4.92651048	     -3.75367768	    -51.81610185	      2.92442780	     -8.83915885	     -1.94389089	     -6.08374351	      1.02301781	      0.57054694
      0.80050000	     -0.16728953	     -3.07386650	      5.76641471	     -0.38126476	      1.04189662	      0.34030663	      2.10006521	      8.29242109	     -2.56610771	     -9.68275108	      4.84871290	     -9.43671897	      4.60218563	     23.09957206	     -4.78680393	     -3.87517996	    -50.42525324	      3.05291428	     -9.06929378	     -2.03173939	     -6.18260368	      0.87132098	      0.72285499
      0.80466667	     -0.18257294	     -2.97740773	      5.61991261	     -0.37618188	      1.04203114	      0.34051166	      1.70274480	      8.23127757	     -2.38977590	     -9.51315218	      4.98647047	     -9.40643027	      4.54928244	     23.23794819	     -4.66055200	     -3.99685289	    -48.99040042	      3.18663060	     -9.26818462	     -2.10078538	     -6.24220439	      0.73012658	      0.84281346
      0.80883333	     -0.13735720	     -2.89378376	      5.49283817	     -0.37107213	      1.04221958	      0.34067435	      1.21865758	      8.18800532	     -2.22650963	     -9.29324594	      5.12779344	     -9.36590319	      4.45832683	     23.28972725	     -4.54659226	     -4.10087965	    -47.49711747	      3.23824100	     -9.51936139	     -2.21807140	     -6.34809126	      0.62445271	      1.04941709
      0.81300000	     -0.12280103	     -2.80310460	      5.34417974	     -0.36596713	      1.04232708	      0.34084915	      0.78325626	      8.12965801	     -2.05296738	     -9.10931839	      5.27840266	     -9.33520745	      4.37293011	     23.34456242	     -4.42819955	     -4.23110748	    -45.94540974	      3.28628687	     -9.72674434	     -2.33060162	     -6.42831163	      0.50129652	      1.20834381
      0.81716667	     -0.12842179	     -2.73259379	      5.19048150	     -0.36087284	      1.04234773	      0.34101605	      0.38094285	      8.08708306	     -1.89227286	     -8.93876771	      5.38379719	     -9.29652425	      4.16633535	     23.40443642	     -4.32459947	     -4.34952614	    -44.35165057	      3.33947251	     -9.94987834	     -2.58952396	     -6.47756729	      0.39353311	      1.43813306
      0.82133333	     -0.16305460	     -2.66248630	      5.02374959	     -0.35577872	      1.04228607	      0.34119786	      0.01829868	      8.04211174	     -1.69105954	     -8.79449463	      5.57167175	     -9.28039597	      4.11422190	     23.47133741	     -4.22966169	     -4.49919363	    -42.70517411	      3.33947083	    -10.06605756	     -2.66700090	     -6.50895924	      0.28544536	      1.50361267
      0.82550000	     -0.17880808	     -2.60326314	      4.86540179	     -0.35066387	      1.04221169	      0.34135108	     -0.37165241	      8.00663323	     -1.51531790	     -8.62899954	      5.71723455	     -9.24852807	      4.05624757	     23.49480078	     -4.14085620	     -4.63826738	    -41.00799039	      3.30530960	    -10.24123999	     -2.75307888	     -6.55234165	      0.19385798	      1.64286425
      0.82966667	     -0.17104326	     -2.56966274	      4.72577502	     -0.34554251	      1.04211842	      0.34143874	     -0.79476190	      7.99676899	     -1.35894619	     -8.43930695	      5.86473468	     -9.21193316	      3.95901722	     23.47801982	     -4.06813120	     -4.75200331	    -39.26864760	      3.22258530	    -10.45537290	     -2.89191245	     -6.59932621	      0.15472789	      1.85977279
